<svg xmlns="http://www.w3.org/2000/svg" viewBox="0 0 21 20" width="21" height="20">
	<style>
		tspan { white-space:pre }
		.shp0 { fill: #b3b6b9 } 
		.shp1 { fill: #575c67 } 
	</style>
	<path id="more1" class="shp0" d="M18.68 5.68M3.25 5.41L3.25 15.6C3.25 16.23 3.75 16.74 4.38 16.74L15.63 16.74C16.25 16.74 16.75 16.23 16.75 15.6L16.75 12.21L19 12.21L19 16.74C19 17.99 17.99 19 16.75 19L3.25 19C2.01 19 1 17.99 1 16.74L1 4.28C1 3.03 2.01 2.01 3.25 2.01L8.88 2.01L8.88 4.28L4.38 4.28C3.75 4.28 3.25 4.79 3.25 5.41Z" />
	<path id="more" class="shp1" d="M18.68 7.29L15.29 10.73C14.86 11.17 14.15 11.17 13.71 10.73C13.28 10.28 13.28 9.57 13.71 9.12L15.12 7.7C13.97 7.65 9.39 7.79 7.69 12.61C7.52 13.07 7.09 13.36 6.63 13.36C6.5 13.36 6.37 13.34 6.25 13.3C5.66 13.09 5.36 12.44 5.57 11.85C7.48 6.43 12.47 5.2 15.24 5.42L13.72 3.93C13.29 3.49 13.29 2.77 13.72 2.32C14.16 1.88 14.87 1.88 15.3 2.32L18.68 5.68C18.89 5.9 19 6.18 19 6.49C19 6.79 18.89 7.08 18.68 7.29Z" />
</svg>